<?xml version="1.0" encoding="utf-8"?>
<!-- Generator: Adobe Illustrator 21.0.2, SVG Export Plug-In . SVG Version: 6.00 Build 0)  -->
<svg version="1.1" id="Layer_1" xmlns="http://www.w3.org/2000/svg" xmlns:xlink="http://www.w3.org/1999/xlink" x="0px" y="0px"
	 viewBox="0 0 24 24" style="enable-background:new 0 0 24 24;" xml:space="preserve">
<style type="text/css">
	.st0{fill:none;}
</style>
<path class="st0" d="M0,0h24v24H0V0z"/>
<path d="M20.6,5.5L12.7,1c-0.4-0.3-1-0.3-1.4,0L3.4,5.5C3.2,5.6,3,5.8,2.9,6l9.1,5.3L21.1,6C21,5.8,20.8,5.6,20.6,5.5z"/>
<path d="M11.2,12.7L2.1,7.4C1.9,7.6,1.9,7.9,1.9,8.1v9.1c0,0.5,0.3,1,0.7,1.2l7.9,4.6c0.2,0.1,0.5,0.2,0.7,0.2L11.2,12.7L11.2,12.7z
	"/>
<path d="M21.9,7.4l-9.1,5.3v10.5c0.2,0,0.5-0.1,0.7-0.2l7.9-4.6c0.4-0.3,0.7-0.7,0.7-1.2V8.1C22.1,7.9,22.1,7.6,21.9,7.4z"/>
</svg>
