<?xml version="1.0" encoding="utf-8"?>
<!-- Generator: Adobe Illustrator 21.0.2, SVG Export Plug-In . SVG Version: 6.00 Build 0)  -->
<svg version="1.1" id="Layer_1" xmlns="http://www.w3.org/2000/svg" xmlns:xlink="http://www.w3.org/1999/xlink" x="0px" y="0px"
	 viewBox="0 0 245.7 78.7" style="enable-background:new 0 0 245.7 78.7;" xml:space="preserve">
<style type="text/css">
	.st0{fill:#FFFFFF;}
</style>
<g>
	<path class="st0" d="M103.7,18H118c7.6,0,11.5,4.4,11.5,10c0,3.6-2.2,6.8-5.7,7.7c4.4,1.1,7.3,3.8,7.3,9c0,6.1-4.5,10.8-12.2,10.8
		h-15.2L103.7,18L103.7,18z M117,32.8c3.1,0,4.8-1.5,4.8-4s-1.4-4-4.4-4h-6v8.1L117,32.8L117,32.8z M118.5,48.7
		c2.8,0,4.7-1.9,4.7-4.7c0-2.8-2-4.6-5.2-4.6h-6.7v9.3H118.5z"/>
	<path class="st0" d="M132.2,23.4c0-2.7,2.2-4.6,4.7-4.6s4.7,1.9,4.7,4.6c0,2.8-2.2,4.7-4.7,4.7S132.2,26.1,132.2,23.4z M133.2,32
		h7.4v23.5h-7.4V32z"/>
	<path class="st0" d="M176.1,48.8c-0.5,0.3-1.4,1-2.6,1c-1.2,0-1.9-0.5-1.9-2.9v-8.7h6V32h-6v-8.4h-7.4V32h-10.5v-8.4h-7.4V32h-3.5
		v6.2h3.5v8.5c0,7.1,3.4,9.4,8.2,9.4c3.4,0,5.4-1.2,6.6-2.2l-2.8-5.2c-0.5,0.3-1.4,1-2.6,1c-1.2,0-1.9-0.5-1.9-2.9v-8.7h10.5v8.5
		c0,7.1,3.4,9.4,8.2,9.4c3.4,0,5.4-1.2,6.6-2.2L176.1,48.8z"/>
	<path class="st0" d="M201.5,53.5c-2.1,1.5-4.7,2.5-8.8,2.5c-8.4,0-13.8-5.1-13.8-12.3c0-7.1,5.7-12.2,13-12.2
		c8.4,0,13,6.3,12.5,14.5h-17.8c0.7,2.4,2.7,3.8,6.1,3.8c2.7,0,4.7-1,5.9-1.9L201.5,53.5z M196.8,41.7c-0.3-2.6-2-4.1-4.9-4.1
		s-4.9,1.3-5.5,4.1H196.8z"/>
	<path class="st0" d="M206.6,32h7.4l-0.1,4.2c1.7-3.9,4.5-4.7,6.9-4.7c1.5,0,2.7,0.4,3.6,0.9l-2.4,6.8c-0.9-0.4-1.8-0.7-2.9-0.7
		c-3.4,0-5.2,1.5-5.2,6.6v10.4h-7.4L206.6,32L206.6,32z"/>
	<path class="st0" d="M223.2,51.5l4.4-3.9c1.6,1.5,3.6,2.5,5.8,2.5c2.4,0,3.2-0.4,3.2-1.4c0-1.3-1.5-1.3-5.3-2.3
		c-3.2-0.8-6.8-2.6-6.8-7.5c0-5.3,4.1-7.4,9.1-7.4c3.9,0,6.6,1.3,8.6,3.3l-4,4.2c-1.1-0.9-2.8-1.8-4.5-1.8c-1.7,0-2.5,0.4-2.5,1.4
		c0,1.3,1.5,1.5,4.7,2.2c3.4,0.8,7.7,2.4,7.7,7.3c0,4.3-2.3,7.8-9.7,7.8C228.5,56,225.3,54,223.2,51.5z"/>
</g>
<g>
	<path class="st0" d="M62.7,49.5c-8.5,0-15.3-6.9-15.3-15.3c0-8.9,9.3-17.8,15.4-22.4c6.1,4.6,15.3,13.4,15.3,22.4
		C78.1,42.6,71.2,49.5,62.7,49.5z"/>
	<g>
		<path class="st0" d="M62.7,19.5c0.8,0.7,1.6,1.5,2.5,2.3c4.4,4.5,6.9,8.9,6.9,12.3c0,5.2-4.2,9.3-9.3,9.3s-9.3-4.2-9.3-9.3
			C53.4,29.6,57.9,23.9,62.7,19.5 M62.7,4.4c0,0-21.3,13.3-21.3,29.7c0,11.8,9.6,21.3,21.3,21.3s21.3-9.6,21.3-21.3
			C84.1,17.6,62.7,4.4,62.7,4.4L62.7,4.4z"/>
	</g>
</g>
<g>
	<path class="st0" d="M24.1,49.5c-8.5,0-15.3-6.9-15.3-15.3c0-6.5,4.9-12.7,8.9-16.8c2.3-2.4,4.7-4.3,6.4-5.6
		c6.1,4.6,15.3,13.4,15.3,22.4C39.4,42.6,32.6,49.5,24.1,49.5z"/>
	<g>
		<path class="st0" d="M24.1,19.5c0.8,0.7,1.6,1.5,2.5,2.3c4.4,4.5,6.9,8.9,6.9,12.3c0,5.2-4.2,9.3-9.3,9.3s-9.3-4.2-9.3-9.3
			C14.7,29.6,19.2,23.9,24.1,19.5 M24.1,4.4c0,0-21.3,13.3-21.3,29.7c0,11.8,9.6,21.3,21.3,21.3s21.3-9.6,21.3-21.3
			C45.4,17.6,24.1,4.4,24.1,4.4L24.1,4.4z"/>
	</g>
</g>
<g>
	<path class="st0" d="M43.4,70.3C34.9,70.3,28,63.4,28,55c0-8.9,9.3-17.8,15.4-22.4C49.5,37.1,58.7,46,58.7,55
		C58.7,63.4,51.8,70.3,43.4,70.3z"/>
	<g>
		<path class="st0" d="M43.4,40.3c0.8,0.7,1.6,1.5,2.5,2.3c4.4,4.5,6.9,8.9,6.9,12.3c0,5.2-4.2,9.3-9.3,9.3S34,60.1,34,55
			C34,50.4,38.5,44.7,43.4,40.3 M43.4,25.2c0,0-21.3,13.3-21.3,29.7c0,11.8,9.6,21.3,21.3,21.3S64.7,66.8,64.7,55
			C64.7,38.4,43.4,25.2,43.4,25.2L43.4,25.2z"/>
	</g>
</g>
</svg>
