<?xml version="1.0" encoding="utf-8"?>
<!-- Generator: Adobe Illustrator 21.0.2, SVG Export Plug-In . SVG Version: 6.00 Build 0)  -->
<svg version="1.1" id="Layer_1" xmlns="http://www.w3.org/2000/svg" xmlns:xlink="http://www.w3.org/1999/xlink" x="0px" y="0px"
	 viewBox="0 0 16 16" style="enable-background:new 0 0 16 16;" xml:space="preserve">
<style type="text/css">
	.st0{fill:#FFFFFF;}
</style>
<path class="st0" d="M10.1,13l0.4-0.7c0,0-1,0.4-2.6,0.4s-2.6-0.4-2.6-0.4L5.9,13L6,15.5C6,15.8,6.9,16,8,16c1.1,0,2-0.2,2-0.5
	L10.1,13L10.1,13z M10.5,8.3c-0.5,0-0.8,0.6-1,1.2c-0.1,0.2-0.4,1.2-0.6,1s0.3-0.9,0.4-1.3C9.1,9.3,8.5,9.7,8.4,9.3
	C8.1,9.5,7.6,9.6,7.7,9.1C7.6,9.3,7.3,9.6,6.9,9.5C6.5,9.3,7.2,7.9,7.4,8c0.2,0.1,0,0.4-0.1,0.5C7.2,8.8,7,9.1,7.1,9.2
	c0.2,0.1,0.6-0.5,0.6-0.5C7.8,8.6,8,7.9,8.2,8C8.4,8.1,7.8,9,8,9.2c0.1,0,0.3,0,0.4-0.2C8.5,9,8.4,8.8,8.7,8.1
	C9,7.5,9.2,6.7,9.4,6.7s0,0.5,0,0.6C9.1,8.1,8.5,9.3,8.8,9.2C9,9.1,9.1,9.1,9.4,8.8S9.6,8,9.8,8C10,8,9.9,8.2,9.9,8.3
	c0.2-0.2,0.8-0.6,0.9-0.2c0.2,0.5-0.9,1.1-0.6,1.1c0.3,0,0.7-0.3,0.8-0.5l0.5-4.3c0,0-0.5,0.4-3.6,0.4S4.4,4.4,4.4,4.4l0.4,4
	C5,7.7,5.6,6.4,6.4,6.5c0.4,0,0.9,0.7,0.4,0.8c-0.2,0-0.2-0.4-0.4-0.4C6.2,6.8,6,6.9,5.9,7.1C5.6,7.3,5,8.4,5.1,8.9
	C5.2,9.6,6,8.7,6.2,8.4c0.1-0.2,0.2-0.8,0.4-0.7c0.2,0.1,0,0.6-0.2,1.2C6.2,9.5,6.1,10.1,5.9,10C5.7,9.9,6,9.2,6,9.1
	C5.8,9.3,5.4,9.7,4.9,9.5L5.2,12c0,0,0.7,0.5,2.7,0.5s2.8-0.5,2.8-0.5L11,9.1c-0.3,0.3-1.1,0.7-1.1,0.2C9.8,8.9,10.7,8.3,10.5,8.3
	L10.5,8.3z M11.6,0.4L9.8,2.3L9.5,3.6c1.3,0.1,2.1,0.3,2.1,0.5c0,0.3-1.6,0.5-3.6,0.5S4.4,4.3,4.4,4S6,3.5,8,3.5c0.3,0,0.6,0,0.8,0
	L9.2,2l1.9-2c0-0.1,0.2,0,0.3,0.1C11.6,0.2,11.6,0.3,11.6,0.4L11.6,0.4L11.6,0.4z M9,4.3c0,0-0.4,0-0.4-0.1c0,0,0,0,0-0.1
	c0,0,0-0.1,0.1-0.1l0,0.1c0,0,0,0,0,0C8.6,4.2,8.9,4.2,9,4.3c0.2-0.1,0.4-0.1,0.4-0.1c0,0,0,0,0,0l0,0c0,0,0.1,0,0.1,0.1
	c0,0.1-0.1,0.1-0.2,0.1C9.2,4.3,9,4.3,9,4.3L9,4.3z"/>
</svg>
