<?xml version="1.0" encoding="utf-8"?>
<!-- Generator: Adobe Illustrator 21.0.2, SVG Export Plug-In . SVG Version: 6.00 Build 0)  -->
<svg version="1.1" id="Layer_1" xmlns="http://www.w3.org/2000/svg" xmlns:xlink="http://www.w3.org/1999/xlink" x="0px" y="0px"
	 viewBox="0 0 16 16" style="enable-background:new 0 0 16 16;" xml:space="preserve">
<style type="text/css">
	.st0{fill:#FFFFFF;}
</style>
<path class="st0" d="M5.4,16c-0.2,0-0.5,0-0.7-0.1c-0.9-0.4-1.4-1.3-1.2-2.3l0,0l0.1-0.1L8.3,1.3c0.1-0.2,0-0.6,0-0.8
	c0-0.1,0-0.1,0-0.2l0,0l0,0v0l0,0C8.4,0.1,8.6,0,9,0c0.4,0,1.1,0.1,1.7,0.4c0.5,0.2,1,0.5,1.4,0.7c0.4,0.3,0.6,0.6,0.5,0.8l0,0l0,0
	c0,0-0.1,0.1-0.1,0.1c-0.2,0.2-0.5,0.5-0.6,0.6L7.1,15l0,0C6.8,15.6,6.1,16,5.4,16L5.4,16L5.4,16z M3.9,13.5L3.9,13.5
	c-0.3,0.8,0.1,1.7,0.9,2c0.2,0.1,0.4,0.1,0.6,0.1c0.6,0,1.2-0.4,1.5-1l0,0l4.6-12.1c0.1-0.3,0.6-0.7,0.7-0.8l0,0c0,0,0,0,0,0
	c0,0,0-0.2-0.4-0.4c-0.3-0.2-0.8-0.5-1.3-0.7C9.9,0.5,9.4,0.3,8.9,0.3c-0.3,0-0.4,0.1-0.4,0.1v0c0,0.1,0.1,0.7,0,1L3.9,13.5
	L3.9,13.5z M9.9,5.8c0,0-0.6,0.7-1.2,1c-0.6,0.3-1,0.2-1.5,0.5C6.6,7.7,6.3,8.1,6.3,8.1l-2.1,5.6c-0.2,0.6,0.1,1.4,0.8,1.6
	c0.6,0.2,1.4-0.1,1.6-0.7L9.9,5.8z M6.6,12.5c0.1,0,0.2,0,0.2,0.1c0,0.1,0,0.1-0.1,0.2s-0.2,0-0.2-0.1C6.5,12.6,6.5,12.5,6.6,12.5z
	 M5.9,11.3c-0.1,0-0.2,0-0.3-0.1c0-0.1,0-0.2,0.1-0.3c0.1,0,0.2,0,0.3,0.1C6.1,11.1,6,11.2,5.9,11.3L5.9,11.3z M6.1,10.6
	c-0.1-0.2,0-0.4,0.2-0.5c0.2-0.1,0.4,0,0.5,0.2c0.1,0.2,0,0.4-0.2,0.5C6.4,10.8,6.2,10.8,6.1,10.6L6.1,10.6z M7.7,9.1
	C7.8,9,8,9.1,8,9.2c0,0.1,0,0.2-0.1,0.3c-0.1,0-0.2,0-0.3-0.1C7.6,9.2,7.6,9.1,7.7,9.1L7.7,9.1z M6.9,8.1c0.1,0,0.2,0,0.2,0.1
	c0,0.1,0,0.1-0.1,0.2c-0.1,0-0.2,0-0.2-0.1C6.8,8.3,6.8,8.2,6.9,8.1z M9.1,0.8c0.1-0.2,0.7-0.1,1.3,0.1c0.7,0.3,1.2,0.6,1.1,0.8
	c-0.1,0.2-0.7,0.1-1.3-0.1C9.5,1.3,9.1,0.9,9.1,0.8L9.1,0.8z"/>
</svg>
