<?xml version="1.0" encoding="utf-8"?>
<!-- Generator: Adobe Illustrator 21.0.2, SVG Export Plug-In . SVG Version: 6.00 Build 0)  -->
<svg version="1.1" id="Layer_1" xmlns="http://www.w3.org/2000/svg" xmlns:xlink="http://www.w3.org/1999/xlink" x="0px" y="0px"
	 viewBox="0 0 1024 768" style="enable-background:new 0 0 1024 768;" xml:space="preserve">
<style type="text/css">
	.st0{fill:#FFFFFF;}
</style>
<path class="st0" d="M819.2,614.4c0,2.6-0.1,5.2-0.4,7.8c-0.7,6.3-2.1,12.6-4.3,18.5c-7.7,21-24.7,38.1-45.8,45.8
	c-7.8,2.9-16.1,4.3-24.4,4.6c-154.3,2-308.5,0-462.8,0c-2.6,0-5.2-0.1-7.8-0.4c-6.3-0.7-12.6-2.1-18.5-4.3
	c-11.6-4.3-22.2-11.4-30.5-20.5c-7.1-7.8-12.6-17-15.9-27c-2.7-7.9-3.9-16.2-4-24.6V76.8L512,384L819.2,76.8
	C819.2,256,819.2,435.2,819.2,614.4z M233.6,614.2c0.1,5.7,0.9,11.3,2.9,16.7c4.8,13.2,15.4,23.8,28.6,28.6c4.9,1.8,10,2.7,15.2,2.9
	c154.4,1.9,308.9,1.9,463.3,0c5.2-0.2,10.3-1.1,15.2-2.9c13.2-4.8,23.8-15.4,28.6-28.6c2-5.4,2.8-10.9,2.9-16.7V146.3l-258,258
	l-1.8,1.7c-2,1.5-4,3-6.3,4c-7.6,3.6-16.7,3.6-24.3,0c-2.3-1.1-4.4-2.4-6.3-4c-0.7-0.5-1.2-1.2-1.8-1.7l-258-258
	C233.6,302.3,233.6,458.3,233.6,614.2L233.6,614.2z"/>
<path class="st0" d="M227.3,668.7L512,384l284.7,284.7c-13.9,13.9-33.1,22.5-54.3,22.5H281.6C260.4,691.2,241.2,682.6,227.3,668.7z"
	/>
</svg>
