<svg id="Layer_1" data-name="Layer 1" xmlns="http://www.w3.org/2000/svg" viewBox="0 0 319.4 25.49"><defs><style>.cls-1{fill-rule:evenodd; fill:white;}</style></defs><title>swipe</title><path id="Shape_11" data-name="Shape 11" class="cls-1" d="M318.41,19.59c.78,0,1-.08,1-.9a6.12,6.12,0,0,0-1.08-1.06,6.85,6.85,0,0,1-1.09-.52,10.39,10.39,0,0,0-2.36-1c-.84-.25-1.92-.59-2.94-.86a14.26,14.26,0,0,0-3.15-.86c-.48,0-.6-.53-1.38-.52-.44,0-.88-.55-1.27-.53-.87,0-1.9-.87-2.66-.86-2.26,0-4.2-1.21-6.47-1.18-1.31,0-15.29-2-15.3-1.9S265.44,7.52,265.4,7.72c0,0-15.4-1.13-16.27-1.18s-1.29-.17-2.55-.15c-.8,0-2.06-.37-2.74-.33-1.35.09-3.19-.15-5.1-.13-.94,0-1.8-.16-2.94-.15-.71,0-.68-.1-1.57-.16a58.21,58.21,0,0,1-5.88-.3,19.18,19.18,0,0,0-2.75-.15c-1.09-.05-2-.16-2.94-.15-3.3,0-6.19-.47-9.41-.44s-5-.48-8-.46c-3.22,0-6.26-.47-9.6-.44a28.73,28.73,0,0,1-3.92-.14c-.75-.07-3.79-.5-4.12-.14-.1.11-4.33-.34-4.31-.23,0-.09-4.25,0-4.9,0-1.07,0-3.26-.33-4.31-.31-.73,0-1.94-.14-2.35-.16s-1,0-1.57,0a28.7,28.7,0,0,1-3.92,0c0,.1-4.46-.27-4.5-.23-.29.27-3.48.24-4,.22-1.18,0-2.92-.33-4.22-.32-4.21,0-8.15-.1-12.15-.06l-7.25.07c-.87,0-3-.15-4.12-.14-.79,0-3.71.06-3.72.13.05-.28-5.19.25-5.68,0-.27-.16-5.48-.23-5.49-.21s-4.78-.24-5.1-.22c-1,.07-3.05,0-4.31,0-2.36,0-4.21-.14-6.66-.11-2.86,0-6.74-.77-9.21-.27a12,12,0,0,1-2.35-.15l-3.13,0c-1.3,0-5.3.57-6.07-.12-.29-.26-2.71,0-3.13,0H73.76c-1.7,0-2.16-.16-4.12-.14-.7,0-9.61-.5-9.6-.53C60.05.42,43.31,0,41.62,0L33.78.08c-2.1,0-3.74.21-5.68.23-1.64,0-3.59,0-4.7,0-.92.08-2.09.32-3.33.39A14.18,14.18,0,0,1,18.51,1c0,.2-1.67,0-2,.11A33.44,33.44,0,0,1,9.12,2.27c-.18,0-3.13.66-3.13.65,0,.27-2.51.58-2.73.83s-1.42.18-1.37.46-.65.66-.77.81A11,11,0,0,1,.54,6.1c-.7.28-.68.8-.18,1.25C.61,7.57.88,9,.47,9c-.8-.12-.33,1-.09,1.25s-.36.72.2.71,0,0,.2.18a3.64,3.64,0,0,0,.59.35A2.06,2.06,0,0,0,2.56,12c0,1.16,1.95,1.46,2.76,1.93a4.31,4.31,0,0,1,.79.71c.26.23-.06,1,.21,1.24.42.38,1.2.46,1.58.88C8,16.78,9.16,18.29,9,18.31c.2,0,.75,1.25.9,1.41.43.5,1.68,1.76,2.56,1.76,0,1,1.68,2.12,2.76,2.11a2.59,2.59,0,0,0,1.58,1.05,8.15,8.15,0,0,0,2.16.24c0-.08,2.22-.41,2.35-.46a10.69,10.69,0,0,1,3.33-.21c1.82,0,3.33,0,4.7,0,.54,0,2.37-.38,2.94-.38a26.23,26.23,0,0,0,2.94,0c.82-.51,2.58,0,3.72-.21a27.79,27.79,0,0,1,4.5-.22c1.62,0,3.85,0,4.9,0,.5,0,1.54-.19,2.35-.2.57,0,2.45.28,2.94,0,.86-.53,3.66-.39,4.89-.4,1.82,0,2.45-.12,3.92-.22.61,0,6.09-.08,6.07-.14.06.31,3.83-.56,4.31-.13a13.4,13.4,0,0,0,2.94.15c.75,0,3,.2,3.92.14v-.18c.21-.24,1.17.34,1.57,0,0,0,2.14.16,2.55.15,1.53,0,3.66.14,5.49.13,1,0,3,.11,3.53.14,1.41.06,3.63.14,4.7.13,4,0,7.68-.61,11.94-.65l4.11,0c1.49,0,4.25,0,5.68-.05a15.76,15.76,0,0,1,1.56-.29c0-.06,2,.4,2.35.07a3.72,3.72,0,0,1,1.17-.19l4.7,0c.49,0,3.77-.34,4.11,0,.1.09,1.38,0,1.37.08a17.4,17.4,0,0,1,2.74.06,14.68,14.68,0,0,0,3.13,0c.3,0,.94,0,1.37,0,1,0,1.92,0,2.94,0s6.42-.23,6.47,0,4.05.05,4.51.22c.86.33,10.56-.29,10.58,0,0-.07,4,.23,4.51.22a21.66,21.66,0,0,1,2.75.15c.66.08,2.54-.39,2.94,0,.55.49,3.82.32,4.71.31,2.31,0,4.08.14,6.47.11,4.44,0,9.09.27,13.91.22l7.44-.07,9-.09c.61,0,5.48-.17,5.48-.14s7.22.4,7.64,0c.24-.22,2.42.16,2.75.15.61,0,1.67.15,2,.16,2.37.08,4.13.14,6.47.11,2.62,0,5.21.45,8,.64,3.42.23,7,.47,10.39.43s5.52.3,8.62.27c.7,0,9.2.42,9.21.35s4.28.23,4.9.22a15,15,0,0,1,2.16.16c.45.4,1.17,0,1.57,0,.12,0,1.2.35,1.38.34s.46,0,.78,0c1-.06,2.86-.07,3.81,0,1.54,0,3.55.31,4.61,0a5.22,5.22,0,0,1,1.57,0c.46,0,2.6-.33,2.94,0,.54.48,1.76,0,2.35,0,1.47-.13,3,0,4.51,0,.8,0,2.16.17,2.64.16s1-.4,1.47,0,1.89,0,2.35,0c0-.41,0-.53.19-.71s.24-.89.77-.9a2.79,2.79,0,0,0,1.37-.55c.25-.23.26.23.39-.18s-.09-.36.19-.54a5.24,5.24,0,0,0,.39-.36,2.55,2.55,0,0,0,.57-1.61A3.17,3.17,0,0,1,318.41,19.59Z"/></svg>
